<svg xmlns="http://www.w3.org/2000/svg" style="display: none;"><symbol id="shopping-cart" viewBox="0 -31 512.00033 512"><title>shopping-cart</title><path d="m166 300.003906h271.003906c6.710938 0 12.597656-4.4375 14.414063-10.882812l60.003906-210.003906c1.289063-4.527344.40625-9.390626-2.433594-13.152344-2.84375-3.75-7.265625-5.964844-11.984375-5.964844h-365.632812l-10.722656-48.25c-1.523438-6.871094-7.617188-11.75-14.648438-11.75h-91c-8.289062 0-15 6.710938-15 15 0 8.292969 6.710938 15 15 15h78.960938l54.167968 243.75c-15.9375 6.929688-27.128906 22.792969-27.128906 41.253906 0 24.8125 20.1875 45 45 45h271.003906c8.292969 0 15-6.707031 15-15 0-8.289062-6.707031-15-15-15h-271.003906c-8.261719 0-15-6.722656-15-15s6.738281-15 15-15zm0 0"/><path d="m151 405.003906c0 24.816406 20.1875 45 45.003906 45 24.8125 0 45-20.183594 45-45 0-24.8125-20.1875-45-45-45-24.816406 0-45.003906 20.1875-45.003906 45zm0 0"/><path d="m362.003906 405.003906c0 24.816406 20.1875 45 45 45 24.816406 0 45-20.183594 45-45 0-24.8125-20.183594-45-45-45-24.8125 0-45 20.1875-45 45zm0 0"/></symbol><symbol id="user" viewBox="0 0 512 512"><title>user</title><g> <g> <path d="M255.999,0c-74.443,0-135,60.557-135,135s60.557,135,135,135s135-60.557,135-135S330.442,0,255.999,0z"/> </g> </g><g> <g> <path d="M478.48,398.68C438.124,338.138,370.579,302,297.835,302h-83.672c-72.744,0-140.288,36.138-180.644,96.68l-2.52,3.779V512 h450h0.001V402.459L478.48,398.68z"/> </g> </g></symbol><symbol id="football-uniform" viewBox="0 0 511.192 511.192"><title>football-uniform</title><path d="m257.797 60.436c24.478 0 44.497-19.912 44.63-44.388h-89.377c.078.523.132 1.054.154 1.594.989 23.996 20.576 42.794 44.593 42.794z"/><path d="m446.548 44.001-23.835-8.74-312.853 408.95s.027 43.59.027 47.412l342.036-444.186c-1.511-1.51-3.339-2.69-5.375-3.436z"/><path d="m509.288 148.402-41.18-73.3-322.847 420.042h241.225c8.199 0 14.846-6.647 14.846-14.846v-269.816l13.246 14.864c5.356 6.012 14.527 6.656 20.672 1.458l70.683-59.798c5.433-4.596 6.841-12.4 3.355-18.604z"/><path d="m109.86 395.344 283.659-370.789-20.727-7.6c-1.637-.6-3.367-.907-5.111-.907h-4.454-31.116c0 .052.007.102.007.154-.216 40.763-33.557 73.927-74.321 73.927-39.995 0-72.613-31.303-74.259-71.265-.039-.96.021-1.899.158-2.815h-35.732-4.454c-1.744 0-3.474.307-5.111.907l-73.756 27.045c-3.321 1.218-6.099 3.582-7.832 6.667l-54.908 97.734c-3.485 6.204-2.078 14.009 3.355 18.605l70.683 59.798c6.147 5.197 15.316 4.552 20.672-1.458l13.246-14.864v184.861z"/></symbol><symbol id="soccer-player" viewBox="-118 0 512 512.01074"><title>soccer-player</title><path d="m161.464844 421.523438c-12.863282 0-25.640625 5.457031-34.589844 16.050781-24.910156 29.5-3.566406 74.4375 34.542969 74.4375 12.863281 0 25.640625-5.457031 34.589843-16.054688 24.9375-29.53125 3.527344-74.4375-34.542968-74.433593zm0 0"/><path d="m270.15625 176.609375c-6.582031-7.332031-50.480469-56.257813-57.046875-63.574219-3.167969-3.535156-7.472656-5.851562-12.171875-6.554687-105.8125-15.929688-39.566406-6.140625-103.082031-16.15625-5.355469-.871094-10.835938.417969-15.234375 3.589843l-72.839844 52.484376c-5.238281 3.777343-8.382812 9.804687-8.480469 16.261718l-1.2929685 85.460938c-.1718745 11.28125 8.8359375 20.5625 20.1132815 20.734375h.316406c11.136719 0 20.246094-8.941407 20.417969-20.117188l1.136719-75.199219 48.125-34.675781 4.917968 124.226563-45 77.355468c-6.351562 10.914063-3.371094 24.863282 6.882813 32.230469l64.980469 46.691407c10.890624-9.488282 24.882812-14.804688 39.566406-14.804688 2.484375 0 4.953125.160156 7.394531.464844-.09375-7.515625-3.632813-14.890625-10.203125-19.613282l-55.058594-39.558593 29.933594-51.453125 27.816406-1.101563 35.625 122.054688c22.609375 16.507812 30.253906 45.726562 20.589844 70.554687l2.46875 8.449219c3.78125 12.960937 17.367188 20.464844 30.394531 16.664063 12.996094-3.792969 20.457031-17.402344 16.664063-30.398438l-63.667969-218.144531-.136719.082031-7.863281 4.902344c-15.984375 9.964844-36.964844 5.039062-46.890625-10.878906-9.941406-15.953126-5.070312-36.949219 10.882812-46.890626l40.773438-25.417968-1.015625-25.605469c5.761719 6.421875 18.601563 20.730469 24.328125 27.113281l-56.886719 35.460938c-9.574219 5.96875-12.496093 18.566406-6.527343 28.140625 5.960937 9.5625 18.554687 12.5 28.136718 6.527343l77.53125-48.332031c10.777344-6.714843 12.867188-21.539062 4.402344-30.972656zm0 0"/><path d="m183.230469 40.65625c-.925781-23.363281-20.613281-41.550781-43.972657-40.6210938-23.359374.9257818-41.546874 20.6132818-40.621093 43.9726558.925781 23.359376 20.613281 41.546876 43.972656 40.621094 23.359375-.925781 41.546875-20.613281 40.621094-43.972656zm0 0"/></symbol><symbol id="swimsuit" viewBox="0 0 511.892 511.892"><title>swimsuit</title><path d="m500.26 191.528c-4.587-37.944-9.44-51.86-11.755-56.636h-183.823v103.077h-30v-103.077h-37.473v69.34h-30v-69.34h-183.822c-2.315 4.776-7.168 18.692-11.755 56.636-3.496 28.919-6.289 66.905-8.301 112.9-2.531 57.86-3.17 114.061-3.331 140.045h211.325l44.621-136.793 44.622 136.793h211.324c-.161-25.984-.8-82.185-3.331-140.044-2.013-45.996-4.806-83.981-8.301-112.901z"/><path d="m33.682 67.419h444.527v37.473h-444.527z"/></symbol><symbol id="trousers" viewBox="0 0 512 512"><title>trousers</title><path d="m190.9 66.8v-13.7h-30.5l-4.4 40.2c-.1.7-.1 1.3-.2 2h6.6c15.7 0 28.5-12.7 28.5-28.5z"/><path d="m146.5 470h36.4v22.1h-36.4z"/><path d="m277.5 43.1h77v-23.2h-193.6v23.2h95.8z"/><path d="m323.9 66.8c0 15.7 12.8 28.5 28.5 28.5h6.7l-4.1-42.2h-31.1z"/><path d="m272.5 106.5v-53.4h-10.8v68.3c6.5-2.1 10.8-8.1 10.8-14.9z"/><path d="m360.1 106.8-.1-1.5h-7.7c-21.2 0-38.4-17.2-38.5-38.5v-13.7h-31.4v53.3c0 14.2-11.5 25.8-25.8 25.8-2.8 0-5-2.2-5-5v-74.1h-50.8v13.7c0 21.2-17.2 38.4-38.5 38.5h-7.6c-12.1 115.1-18.3 230.8-18.7 346.5v.3c0 4.3 3.5 7.9 7.8 7.9h42.8c4 0 7.3-2.9 7.8-6.9l17-133.8c2.8-21.9 7-43.6 12.7-65v-.1l27.3-92.9c.6-2.1 2.6-3.6 4.8-3.6 2.2 0 4.2 1.5 4.8 3.6l27 96.1v.1c5 19.5 8.7 39.4 11.3 59.3l17.3 136.2c.5 3.9 3.8 6.8 7.8 6.9h43.6c4.3 0 7.8-3.5 7.9-7.8.6-115.2-4.7-230.5-15.8-345.3zm-61.2 152.2c-.3-1.3-.6-2.5-1-3.8-.7-2.7.9-5.4 3.6-6.1s5.4.9 6.1 3.6v.1c.3 1.3.7 2.6 1 3.9.7 2.7-1 5.4-3.7 6.1-2.7.5-5.4-1.2-6-3.8zm16.1 61c-2.7.3-5.2-1.6-5.6-4.3-1.7-13.4-4-26.9-6.8-40.2-.6-2.7 1.1-5.4 3.8-6s5.4 1.1 6 3.8v.1c2.9 13.6 5.2 27.4 6.9 41 .4 2.8-1.5 5.3-4.3 5.6z"/><path d="m328.8 470h36.4v22.1h-36.4z"/></symbol><symbol id="jacket" viewBox="0 0 512 512"><title>jacket</title><path d="m92 113.2c-12.1 13-21.1 28.5-26.5 45.4-2.8 9-5.4 18.1-7.7 27.3l34.5 2c.7-4.2 2.7-8 5.8-10.8-3.8-3.5-6-8.5-6-13.7v-50.2z"/><path d="m23.3 474.6 49.2 2.6 5.3-28.2-52.1-3z"/><path d="m102 279v60.8c0 4.8 3.9 8.7 8.7 8.7h140.2v-78.3h-140.2c-4.8.1-8.7 4-8.7 8.8z"/><path d="m250.9 182h-140.2c-4.8 0-8.7 3.9-8.7 8.7v60.8c0 4.8 3.9 8.7 8.7 8.7h140.2z"/><path d="m21.8 435.8 63.8 3.7 6.4-20.4v-39.8l-62.4-3.6z"/><path d="m92 197.8-36.6-2.1c-3.6 15.6-6.4 31.3-8.5 47.1l-4.3 33 49.4 2.9c.1-5.1 2.3-9.9 6-13.4-3.8-3.5-6-8.5-6-13.7z"/><path d="m92 288.7-50.7-2.9-10.4 80 61 3.5v-2c0-5.2 2.2-10.2 6-13.7-3.8-3.5-6-8.5-6-13.7v-51.2z"/><path d="m110.7 172h140.2v-48.4l-65.6-47.6c-1.3-.9-2.1-2.4-2.1-4v-7.8c-23.2 5-45.9 12.3-67.6 21.8l-9.6 4.2c-2.5 1.1-4.1 3.5-4.1 6.2v66.9c.1 4.8 4 8.7 8.8 8.7z"/><path d="m469.2 275.8-4.3-33c-2-15.8-4.9-31.6-8.5-47.1l-36.6 2.1v53.7c0 5.2-2.2 10.2-6 13.7 3.7 3.5 5.9 8.3 6 13.4z"/><path d="m454 185.8c-2.3-9.2-4.9-18.3-7.7-27.3-5.3-16.9-14.4-32.4-26.5-45.3v50.1c0 5.2-2.2 10.2-6 13.7 3.1 2.9 5.1 6.7 5.8 10.8z"/><path d="m309.1 26h-106.4l53.2 41.6z"/><path d="m250.9 76.4-57.7-45.1v38.2l57.7 41.8z"/><path d="m260.9 111.3 57.7-41.8v-38.2l-57.7 45.1z"/><path d="m250.9 358.6h-140.2c-4.8 0-8.7 3.9-8.7 8.7v60.8c0 4.8 3.9 8.7 8.7 8.7h140.2z"/><path d="m401.1 182h-140.2v78.3h140.2c4.8 0 8.7-3.9 8.7-8.7v-60.8c0-4.9-3.9-8.8-8.7-8.8z"/><path d="m401.1 270.3h-140.2v78.3h140.2c4.8 0 8.7-3.9 8.7-8.7v-60.9c0-4.8-3.9-8.7-8.7-8.7z"/><path d="m405.8 90.2-9.6-4.2c-21.7-9.5-44.4-16.8-67.6-21.7v7.7c0 1.6-.8 3.1-2.1 4l-65.6 47.6v48.4h140.2c4.8 0 8.7-3.9 8.7-8.7v-66.9c0-2.7-1.6-5.1-4-6.2z"/><path d="m114.8 486h282.2v-39.1h-282.2zm257.5-24.9c0-2.8 2.2-5 5-5s5 2.2 5 5v9.8c0 2.8-2.2 5-5 5s-5-2.2-5-5zm-27 0c0-2.8 2.2-5 5-5s5 2.2 5 5v9.8c0 2.8-2.2 5-5 5s-5-2.2-5-5zm-27 0c0-2.8 2.2-5 5-5s5 2.2 5 5v9.8c0 2.8-2.2 5-5 5s-5-2.2-5-5zm-26.9 0c0-2.8 2.2-5 5-5s5 2.2 5 5v9.8c0 2.8-2.2 5-5 5s-5-2.2-5-5zm-27 0c0-2.8 2.2-5 5-5s5 2.2 5 5v9.8c0 2.8-2.2 5-5 5s-5-2.2-5-5zm-27 0c0-2.8 2.2-5 5-5s5 2.2 5 5v9.8c0 2.8-2.2 5-5 5s-5-2.2-5-5zm-27 0c0-2.8 2.2-5 5-5s5 2.2 5 5v9.8c0 2.8-2.2 5-5 5s-5-2.2-5-5zm-27 0c0-2.8 2.2-5 5-5s5 2.2 5 5v9.8c0 2.8-2.2 5-5 5s-5-2.2-5-5zm-27 0c0-2.8 2.2-5 5-5s5 2.2 5 5v9.8c0 2.8-2.2 5-5 5s-5-2.2-5-5zm-26.9 0c0-2.8 2.2-5 5-5s5 2.2 5 5v9.8c0 2.8-2.2 5-5 5s-5-2.2-5-5z"/><path d="m487.7 445.9-52.1 3 5.3 28.3 49.3-2.6z"/><path d="m482.1 375.7-62.3 3.6v39.8l6.4 20.4 63.7-3.7z"/><path d="m419.8 369.3 61-3.5-10.4-80-50.7 2.9v51.2c0 5.2-2.2 10.2-6 13.7 3.8 3.5 6 8.5 6 13.7v2z"/><path d="m401.1 358.6h-140.2v78.3h140.2c4.8 0 8.7-3.9 8.7-8.7v-60.8c0-4.9-3.9-8.8-8.7-8.8z"/></symbol><symbol id="football-ball" viewBox="0 0 511.533 511.533"><title>football-ball</title><path d="m213.358 197.528-26.202 80.641 68.597 49.839 68.597-49.839-26.202-80.641z"/><path d="m476.238 385.572c18.672-31.593 30.279-66.864 33.983-103.843l-54.709 39.558z"/><path d="m325.682 185.185 28.225 86.869 81.403 26.821 75.934-54.906c-2.076-46.027-16.287-89.847-41.086-127.775l-93.887-.16z"/><path d="m240.753 354.192-73.886-53.681-81.526 26.404-28.989 89.047c5.774 7.16 11.95 14.062 18.547 20.659 26.005 26.005 56.629 45.708 90.016 58.37l75.838-55.099z"/><path d="m153.439 21.22c-28.935 12.631-55.545 30.696-78.541 53.692-3.482 3.482-6.838 7.056-10.092 10.699l67.592.077z"/><path d="m1.21 281.005c3.6 36.998 15.114 72.298 33.69 103.937l20.908-64.221z"/><path d="m210.13 167.528h91.298l50.611-69.182-28.9-89.413c-21.691-5.885-44.303-8.933-67.386-8.933-22.834 0-45.207 2.988-66.687 8.749l-29.16 89.347z"/><path d="m157.626 271.97 28.215-86.836-50.231-69.442-93.865-.107c-24.914 37.867-39.252 81.647-41.456 127.653l75.802 55.139z"/><path d="m344.567 300.563-73.814 53.629v85.7l75.837 55.1c33.387-12.662 64.012-32.365 90.017-58.37 6.422-6.422 12.448-13.133 18.091-20.09l-28.743-89.152z"/><path d="m447.18 86.154c-3.404-3.832-6.918-7.588-10.573-11.242-22.82-22.82-49.197-40.79-77.875-53.407l20.858 64.534z"/><path d="m201.189 505.718c17.729 3.833 35.993 5.815 54.564 5.815s36.835-1.981 54.564-5.815l-54.564-39.643z"/></symbol><symbol id="github" viewBox="0 0 24 24"><title>github</title><path d="m12 .5c-6.63 0-12 5.28-12 11.792 0 5.211 3.438 9.63 8.205 11.188.6.111.82-.254.82-.567 0-.28-.01-1.022-.015-2.005-3.338.711-4.042-1.582-4.042-1.582-.546-1.361-1.335-1.725-1.335-1.725-1.087-.731.084-.716.084-.716 1.205.082 1.838 1.215 1.838 1.215 1.07 1.803 2.809 1.282 3.495.981.108-.763.417-1.282.76-1.577-2.665-.295-5.466-1.309-5.466-5.827 0-1.287.465-2.339 1.235-3.164-.135-.298-.54-1.497.105-3.121 0 0 1.005-.316 3.3 1.209.96-.262 1.98-.392 3-.398 1.02.006 2.04.136 3 .398 2.28-1.525 3.285-1.209 3.285-1.209.645 1.624.24 2.823.12 3.121.765.825 1.23 1.877 1.23 3.164 0 4.53-2.805 5.527-5.475 5.817.42.354.81 1.077.81 2.182 0 1.578-.015 2.846-.015 3.229 0 .309.21.678.825.56 4.801-1.548 8.236-5.97 8.236-11.173 0-6.512-5.373-11.792-12-11.792z"/></symbol><symbol id="linkedin" viewBox="0 0 512 512"><title>linkedin</title><path d="m475.074219 0h-438.148438c-20.394531 0-36.925781 16.53125-36.925781 36.925781v438.148438c0 20.394531 16.53125 36.925781 36.925781 36.925781h438.148438c20.394531 0 36.925781-16.53125 36.925781-36.925781v-438.148438c0-20.394531-16.53125-36.925781-36.925781-36.925781zm-293.464844 387h-62.347656v-187.574219h62.347656zm-31.171875-213.1875h-.40625c-20.921875 0-34.453125-14.402344-34.453125-32.402344 0-18.40625 13.945313-32.410156 35.273437-32.410156 21.328126 0 34.453126 14.003906 34.859376 32.410156 0 18-13.53125 32.402344-35.273438 32.402344zm255.984375 213.1875h-62.339844v-100.347656c0-25.21875-9.027343-42.417969-31.585937-42.417969-17.222656 0-27.480469 11.601563-31.988282 22.800781-1.648437 4.007813-2.050781 9.609375-2.050781 15.214844v104.75h-62.34375s.816407-169.976562 0-187.574219h62.34375v26.558594c8.285157-12.78125 23.109375-30.960937 56.1875-30.960937 41.019531 0 71.777344 26.808593 71.777344 84.421874zm0 0"/></symbol></svg>